<?xml version="1.0" encoding="utf-8"?>
<!-- Generator: Adobe Illustrator 22.0.1, SVG Export Plug-In . SVG Version: 6.00 Build 0)  -->
<svg version="1.1" id="Layer_1" xmlns="http://www.w3.org/2000/svg" xmlns:xlink="http://www.w3.org/1999/xlink" x="0px" y="0px"
     width="24px" height="24px" viewBox="0 0 24 24" enable-background="new 0 0 24 24" xml:space="preserve">
  <path fill="#1A73E8"
	d="M19,18v-3h2v3h3v2h-3v3h-2v-3h-3v-2H19z M11,9c-1.65,0-3,1.35-3,3s1.35,3,3,3s3-1.35,3-3S12.65,9,11,9z M11,17                      
           c-2.76,0-5-2.24-5-5s2.24-5,5-5s5,2.24,5,5S13.76,17,11,17z M21,13h-2V6H3v12h11v2h2.5H3c-1.1,0-2-0.9-2-2V6c0-1.1,0.9-2,2-2h3.17                    
           L8,2h6l1.83,2H19c1.1,0,2,0.9,2,2V13z"/>
</svg>






